# xmcd
#
# Track frame offsets:
#	150
#	14607
#	28655
#	42662
#
# Disc length: 761 seconds
#
# Revision: 0
# Processed by: cddbd v1.5.1PL2 Copyright (c) Steve Scherf et al.
# Submitted via: audiograbber 1.80
#
DISCID=3002f704
DTITLE=Elvin - Heaven
DYEAR=1900
DGENRE=
TTITLE0=Heaven (Single Mix)
TTITLE1=Heaven (Grand Prix Mix)
TTITLE2=Heaven (Unplugged)
TTITLE3=Heaven (Karaoke)
EXTD=
EXTT0=
EXTT1=
EXTT2=
EXTT3=
PLAYORDER=
